<svg xmlns="http://www.w3.org/2000/svg" viewBox="0 0 736 736"><g fill="none" stroke="gray" stroke-width="2"><path d="M225.32 279.07a.6.6 0 0 0 .6.6l200.27.11a.6.6 0 0 0 .44-1.01l-64.66-68.58a.6.6 0 0 0-.44-.19H226a.6.6 0 0 0-.6.6l-.08 68.47M427.5 415.06a.75.75 0 0 0 1.26.55l68.25-64.36a.75.75 0 0 0 .24-.54V210.75a.75.75 0 0 0-.75-.75h-68.25a.75.75 0 0 0-.75.75v204.31M225.98 525.77l68.54-.07q.48 0 .48-.47V280.52a.36.36 0 0 0-.63-.24q-33.79 37.39-67.68 74.9-1.43 1.58-1.43 4.07-.03 73.32.01 146.63c0 4.68.49 12.81.08 19.21a.63.63 0 0 0 .63.68M438.35 525.54a.34.34 0 0 0 .25.11l87.3.15a.34.34 0 0 0 .25-.57L382.84 367.78a.34.34 0 0 0-.25-.11l-86.87.35a.34.34 0 0 0-.25.57l142.88 156.95" vector-effect="non-scaling-stroke"/></g><path d="M0 0h736v736H0V0Zm225.32 279.07a.6.6 0 0 0 .6.6l200.27.11a.6.6 0 0 0 .44-1.01l-64.66-68.58a.6.6 0 0 0-.44-.19H226a.6.6 0 0 0-.6.6l-.08 68.47ZM427.5 415.06a.75.75 0 0 0 1.26.55l68.25-64.36a.75.75 0 0 0 .24-.54V210.75a.75.75 0 0 0-.75-.75h-68.25a.75.75 0 0 0-.75.75v204.31ZM225.98 525.77l68.54-.07q.48 0 .48-.47V280.52a.36.36 0 0 0-.63-.24q-33.79 37.39-67.68 74.9-1.43 1.58-1.43 4.07-.03 73.32.01 146.63c0 4.68.49 12.81.08 19.21a.63.63 0 0 0 .63.68Zm212.37-.23a.34.34 0 0 0 .25.11l87.3.15a.34.34 0 0 0 .25-.57L382.84 367.78a.34.34 0 0 0-.25-.11l-86.87.35a.34.34 0 0 0-.25.57l142.88 156.95Z"/><path fill="#fff" d="m225.32 279.07.08-68.47a.6.6 0 0 1 .6-.6h135.53a.6.6 0 0 1 .44.19l64.66 68.58a.6.6 0 0 1-.44 1.01l-200.27-.11a.6.6 0 0 1-.6-.6ZM427.5 415.06V210.75a.75.75 0 0 1 .75-.75h68.25a.75.75 0 0 1 .75.75v139.96a.75.75 0 0 1-.24.54l-68.25 64.36a.75.75 0 0 1-1.26-.55ZM294.52 525.7l-68.54.07a.63.63 0 0 1-.63-.68c.41-6.4-.08-14.53-.08-19.21q-.04-73.31-.01-146.63 0-2.49 1.43-4.07 33.89-37.51 67.68-74.9a.36.36 0 0 1 .63.24v244.71q0 .47-.48.47ZM438.35 525.54 295.47 368.59a.34.34 0 0 1 .25-.57l86.87-.35a.34.34 0 0 1 .25.11l143.31 157.45a.34.34 0 0 1-.25.57l-87.3-.15a.34.34 0 0 1-.25-.11Z"/></svg>